<svg width="127" height="45" viewBox="0 0 127 45" fill="none" xmlns="http://www.w3.org/2000/svg">
<path d="M34.5094 28.2633L23.3633 8.59287C22.6952 7.41567 21.4397 6.68359 20.0862 6.68359H13.557C13.2882 6.68359 13.0396 6.8267 12.9055 7.05942C12.7707 7.29291 12.77 7.57911 12.904 7.81184L30.2269 37.9385C30.3617 38.1735 30.611 38.3166 30.8799 38.3166C30.8874 38.3166 30.8949 38.3166 30.9017 38.3166C31.1789 38.3083 31.4289 38.1479 31.5532 37.9001L34.6012 31.8039C35.1639 30.6802 35.1292 29.3569 34.5094 28.2633ZM19.4619 25.1038L11.177 12.3C11.0377 12.0853 10.7997 11.9558 10.5444 11.9558C10.5391 11.9558 10.5338 11.9558 10.5286 11.9558C10.2672 11.9618 10.0277 12.1019 9.89514 12.3271L2.36349 25.1309C2.22641 25.3636 2.2249 25.6521 2.35897 25.8863C2.49303 26.1213 2.74308 26.2659 3.01271 26.2659H18.8292C19.1049 26.2659 19.3587 26.1153 19.4912 25.8728C19.623 25.6302 19.6117 25.3357 19.4619 25.1038ZM26.266 37.1981L22.5001 30.4196C22.3676 30.1801 22.1153 30.0317 21.8419 30.0317H0.753217C0.486597 30.0317 0.238805 30.1733 0.103988 30.403C-0.0315816 30.6328 -0.0345943 30.9175 0.0949502 31.1502L3.86078 37.9287C3.99334 38.1682 4.24565 38.3166 4.51905 38.3166H25.6077C25.8743 38.3166 26.1221 38.175 26.2569 37.9453C26.3925 37.7155 26.3955 37.4308 26.266 37.1981Z" fill="#24B47E"/>
<path d="M67.91 18.72C67.91 19.94 67.63 21.06 67.07 22.08C66.51 23.08 65.65 23.89 64.49 24.51C63.33 25.13 61.89 25.44 60.17 25.44H56.99V33H51.86V11.94H60.17C61.85 11.94 63.27 12.23 64.43 12.81C65.59 13.39 66.46 14.19 67.04 15.21C67.62 16.23 67.91 17.4 67.91 18.72ZM59.78 21.36C60.76 21.36 61.49 21.13 61.97 20.67C62.45 20.21 62.69 19.56 62.69 18.72C62.69 17.88 62.45 17.23 61.97 16.77C61.49 16.31 60.76 16.08 59.78 16.08H56.99V21.36H59.78ZM73.1607 14.52C72.2607 14.52 71.5207 14.26 70.9407 13.74C70.3807 13.2 70.1007 12.54 70.1007 11.76C70.1007 10.96 70.3807 10.3 70.9407 9.78C71.5207 9.24 72.2607 8.97 73.1607 8.97C74.0407 8.97 74.7607 9.24 75.3207 9.78C75.9007 10.3 76.1907 10.96 76.1907 11.76C76.1907 12.54 75.9007 13.2 75.3207 13.74C74.7607 14.26 74.0407 14.52 73.1607 14.52ZM75.7107 16.26V33H70.5807V16.26H75.7107ZM89.3284 33L86.1184 28.35L83.4184 33H77.8684L83.3884 24.45L77.7184 16.26H83.4784L86.6884 20.88L89.3884 16.26H94.9384L89.3284 24.69L95.0884 33H89.3284ZM112.845 24.36C112.845 24.84 112.815 25.34 112.755 25.86H101.145C101.225 26.9 101.555 27.7 102.135 28.26C102.735 28.8 103.465 29.07 104.325 29.07C105.605 29.07 106.495 28.53 106.995 27.45H112.455C112.175 28.55 111.665 29.54 110.925 30.42C110.205 31.3 109.295 31.99 108.195 32.49C107.095 32.99 105.865 33.24 104.505 33.24C102.865 33.24 101.405 32.89 100.125 32.19C98.8451 31.49 97.8451 30.49 97.1251 29.19C96.4051 27.89 96.0451 26.37 96.0451 24.63C96.0451 22.89 96.3951 21.37 97.0951 20.07C97.8151 18.77 98.8151 17.77 100.095 17.07C101.375 16.37 102.845 16.02 104.505 16.02C106.125 16.02 107.565 16.36 108.825 17.04C110.085 17.72 111.065 18.69 111.765 19.95C112.485 21.21 112.845 22.68 112.845 24.36ZM107.595 23.01C107.595 22.13 107.295 21.43 106.695 20.91C106.095 20.39 105.345 20.13 104.445 20.13C103.585 20.13 102.855 20.38 102.255 20.88C101.675 21.38 101.315 22.09 101.175 23.01H107.595ZM120.681 19.05C121.281 18.13 122.031 17.41 122.931 16.89C123.831 16.35 124.831 16.08 125.931 16.08V21.51H124.521C123.241 21.51 122.281 21.79 121.641 22.35C121.001 22.89 120.681 23.85 120.681 25.23V33H115.551V16.26H120.681V19.05Z" fill="black"/>
</svg>
